STARTFONT 2.1
FONT -Bitstream-Terminal-Bold-R-Narrow--18-140-100-100-C-70-DEC-DECtech
SIZE 14 100 100
FONTBOUNDINGBOX 7 20 0 -5

STARTPROPERTIES 24
FOUNDRY "Bitstream"
FAMILY_NAME "Terminal"
WEIGHT_NAME "Bold"
SLANT "R"
SETWIDTH_NAME "Narrow"
ADD_STYLE_NAME ""
PIXEL_SIZE 18
POINT_SIZE 140
RESOLUTION_X 100
RESOLUTION_Y 100
SPACING "C"
AVERAGE_WIDTH 70
CHARSET_REGISTRY "DEC"
CHARSET_ENCODING "DECtech"
CAP_HEIGHT 11
COPYRIGHT "Copyright (c) 1991 Digital Equipment Corporation. All Rights Reserved."
_DEC_PRODUCTINFO "DECterm Fonts V2.2, 11-Nov-1991"
FULL_NAME "Terminal Bold Narrow"
WEIGHT 10
X_HEIGHT -2
QUAD_WIDTH 7
DEFAULT_CHAR 159
FONT_DESCENT 5
FONT_ASCENT 15
ENDPROPERTIES

CHARS 182

STARTCHAR space
ENCODING 32
SWIDTH 360 0
DWIDTH 7 0
BBX 7 20 0 -5
BITMAP
00
00
00
00
00
00
00
00
00
00
00
00
00
00
00
00
00
00
00
00
ENDCHAR

STARTCHAR exclam
ENCODING 33
SWIDTH 360 0
DWIDTH 7 0
BBX 7 20 0 -5
BITMAP
00
00
00
00
18
18
18
18
18
18
18
00
18
3C
18
00
00
00
00
00
ENDCHAR

STARTCHAR quotedbl
ENCODING 34
SWIDTH 360 0
DWIDTH 7 0
BBX 7 20 0 -5
BITMAP
00
00
6C
6C
6C
6C
6C
00
00
00
00
00
00
00
00
00
00
00
00
00
ENDCHAR

STARTCHAR numbersign
ENCODING 35
SWIDTH 360 0
DWIDTH 7 0
BBX 7 20 0 -5
BITMAP
00
00
00
00
24
24
24
7E
7E
24
24
7E
7E
24
24
24
00
00
00
00
ENDCHAR

STARTCHAR dollar
ENCODING 36
SWIDTH 360 0
DWIDTH 7 0
BBX 7 20 0 -5
BITMAP
00
00
00
18
18
3C
7E
66
60
78
3E
06
66
7E
7C
18
18
18
00
00
ENDCHAR

STARTCHAR percent
ENCODING 37
SWIDTH 360 0
DWIDTH 7 0
BBX 7 20 0 -5
BITMAP
00
00
00
00
70
D8
D8
70
06
3C
E0
1C
36
36
1C
00
00
00
00
00
ENDCHAR

STARTCHAR ampersand
ENCODING 38
SWIDTH 360 0
DWIDTH 7 0
BBX 7 20 0 -5
BITMAP
00
00
00
00
1C
3C
30
30
30
38
7A
6E
6C
7E
36
00
00
00
00
00
ENDCHAR

STARTCHAR quoteright
ENCODING 39
SWIDTH 360 0
DWIDTH 7 0
BBX 7 20 0 -5
BITMAP
00
00
0C
08
18
10
30
00
00
00
00
00
00
00
00
00
00
00
00
00
ENDCHAR

STARTCHAR parenleft
ENCODING 40
SWIDTH 360 0
DWIDTH 7 0
BBX 7 20 0 -5
BITMAP
00
00
00
0C
0C
18
18
30
30
30
30
30
30
18
18
0C
0C
00
00
00
ENDCHAR

STARTCHAR parenright
ENCODING 41
SWIDTH 360 0
DWIDTH 7 0
BBX 7 20 0 -5
BITMAP
00
00
00
30
30
18
18
0C
0C
0C
0C
0C
0C
18
18
30
30
00
00
00
ENDCHAR

STARTCHAR asterisk
ENCODING 42
SWIDTH 360 0
DWIDTH 7 0
BBX 7 20 0 -5
BITMAP
00
00
00
00
00
00
10
10
54
7C
38
28
6C
00
00
00
00
00
00
00
ENDCHAR

STARTCHAR plus
ENCODING 43
SWIDTH 360 0
DWIDTH 7 0
BBX 7 20 0 -5
BITMAP
00
00
00
00
00
00
18
18
18
7E
7E
18
18
18
00
00
00
00
00
00
ENDCHAR

STARTCHAR comma
ENCODING 44
SWIDTH 360 0
DWIDTH 7 0
BBX 7 20 0 -5
BITMAP
00
00
00
00
00
00
00
00
00
00
00
00
18
18
30
30
20
00
00
00
ENDCHAR

STARTCHAR minus
ENCODING 45
SWIDTH 360 0
DWIDTH 7 0
BBX 7 20 0 -5
BITMAP
00
00
00
00
00
00
00
00
00
7C
7C
00
00
00
00
00
00
00
00
00
ENDCHAR

STARTCHAR period
ENCODING 46
SWIDTH 360 0
DWIDTH 7 0
BBX 7 20 0 -5
BITMAP
00
00
00
00
00
00
00
00
00
00
00
00
18
3C
18
00
00
00
00
00
ENDCHAR

STARTCHAR slash
ENCODING 47
SWIDTH 360 0
DWIDTH 7 0
BBX 7 20 0 -5
BITMAP
00
00
00
0C
0C
0C
18
18
18
30
30
30
30
60
60
60
00
00
00
00
ENDCHAR

STARTCHAR zero
ENCODING 48
SWIDTH 360 0
DWIDTH 7 0
BBX 7 20 0 -5
BITMAP
00
00
00
00
18
3C
3C
66
66
66
66
66
3C
3C
18
00
00
00
00
00
ENDCHAR

STARTCHAR one
ENCODING 49
SWIDTH 360 0
DWIDTH 7 0
BBX 7 20 0 -5
BITMAP
00
00
00
00
18
38
78
58
18
18
18
18
18
7E
7E
00
00
00
00
00
ENDCHAR

STARTCHAR two
ENCODING 50
SWIDTH 360 0
DWIDTH 7 0
BBX 7 20 0 -5
BITMAP
00
00
00
00
3C
7E
66
06
06
0C
0C
18
30
7E
7E
00
00
00
00
00
ENDCHAR

STARTCHAR three
ENCODING 51
SWIDTH 360 0
DWIDTH 7 0
BBX 7 20 0 -5
BITMAP
00
00
00
00
3C
7E
66
06
1C
1E
06
06
66
7E
3C
00
00
00
00
00
ENDCHAR

STARTCHAR four
ENCODING 52
SWIDTH 360 0
DWIDTH 7 0
BBX 7 20 0 -5
BITMAP
00
00
00
00
0C
1C
1C
3C
2C
6C
7E
7E
0C
0C
0C
00
00
00
00
00
ENDCHAR

STARTCHAR five
ENCODING 53
SWIDTH 360 0
DWIDTH 7 0
BBX 7 20 0 -5
BITMAP
00
00
00
00
7E
7E
60
60
7C
7E
06
06
66
7E
3C
00
00
00
00
00
ENDCHAR

STARTCHAR six
ENCODING 54
SWIDTH 360 0
DWIDTH 7 0
BBX 7 20 0 -5
BITMAP
00
00
00
00
0E
1E
38
30
7C
7E
66
66
66
7E
3C
00
00
00
00
00
ENDCHAR

STARTCHAR seven
ENCODING 55
SWIDTH 360 0
DWIDTH 7 0
BBX 7 20 0 -5
BITMAP
00
00
00
00
7E
7E
46
06
0C
0C
0C
18
18
18
18
00
00
00
00
00
ENDCHAR

STARTCHAR eight
ENCODING 56
SWIDTH 360 0
DWIDTH 7 0
BBX 7 20 0 -5
BITMAP
00
00
00
00
3C
7E
66
66
3C
7E
66
66
66
7E
3C
00
00
00
00
00
ENDCHAR

STARTCHAR nine
ENCODING 57
SWIDTH 360 0
DWIDTH 7 0
BBX 7 20 0 -5
BITMAP
00
00
00
00
3C
7E
66
66
66
7E
3E
0C
1C
78
70
00
00
00
00
00
ENDCHAR

STARTCHAR colon
ENCODING 58
SWIDTH 360 0
DWIDTH 7 0
BBX 7 20 0 -5
BITMAP
00
00
00
00
00
00
00
18
3C
18
00
00
18
3C
18
00
00
00
00
00
ENDCHAR

STARTCHAR semicolon
ENCODING 59
SWIDTH 360 0
DWIDTH 7 0
BBX 7 20 0 -5
BITMAP
00
00
00
00
00
00
00
18
3C
18
00
00
18
18
30
30
20
00
00
00
ENDCHAR

STARTCHAR less
ENCODING 60
SWIDTH 360 0
DWIDTH 7 0
BBX 7 20 0 -5
BITMAP
00
00
00
00
00
06
0E
1C
38
70
38
1C
0E
06
00
00
00
00
00
00
ENDCHAR

STARTCHAR equal
ENCODING 61
SWIDTH 360 0
DWIDTH 7 0
BBX 7 20 0 -5
BITMAP
00
00
00
00
00
00
00
7E
7E
00
00
7E
7E
00
00
00
00
00
00
00
ENDCHAR

STARTCHAR greater
ENCODING 62
SWIDTH 360 0
DWIDTH 7 0
BBX 7 20 0 -5
BITMAP
00
00
00
00
00
60
70
38
1C
0E
1C
38
70
60
00
00
00
00
00
00
ENDCHAR

STARTCHAR question
ENCODING 63
SWIDTH 360 0
DWIDTH 7 0
BBX 7 20 0 -5
BITMAP
00
00
00
00
3C
7E
46
0E
1C
18
18
00
18
3C
18
00
00
00
00
00
ENDCHAR

STARTCHAR at
ENCODING 64
SWIDTH 360 0
DWIDTH 7 0
BBX 7 20 0 -5
BITMAP
00
00
00
3C
7E
62
62
6E
6E
6A
6A
6E
6E
60
60
7E
3C
00
00
00
ENDCHAR

STARTCHAR A
ENCODING 65
SWIDTH 360 0
DWIDTH 7 0
BBX 7 20 0 -5
BITMAP
00
00
00
00
18
3C
3C
66
66
66
7E
7E
66
66
66
00
00
00
00
00
ENDCHAR

STARTCHAR B
ENCODING 66
SWIDTH 360 0
DWIDTH 7 0
BBX 7 20 0 -5
BITMAP
00
00
00
00
7C
7E
66
66
7E
7C
66
66
66
7E
7C
00
00
00
00
00
ENDCHAR

STARTCHAR C
ENCODING 67
SWIDTH 360 0
DWIDTH 7 0
BBX 7 20 0 -5
BITMAP
00
00
00
00
3A
7E
66
66
60
60
60
60
66
7E
3C
00
00
00
00
00
ENDCHAR

STARTCHAR D
ENCODING 68
SWIDTH 360 0
DWIDTH 7 0
BBX 7 20 0 -5
BITMAP
00
00
00
00
7C
7E
66
66
66
66
66
66
66
7E
7C
00
00
00
00
00
ENDCHAR

STARTCHAR E
ENCODING 69
SWIDTH 360 0
DWIDTH 7 0
BBX 7 20 0 -5
BITMAP
00
00
00
00
7E
7E
60
60
7C
7C
60
60
60
7E
7E
00
00
00
00
00
ENDCHAR

STARTCHAR F
ENCODING 70
SWIDTH 360 0
DWIDTH 7 0
BBX 7 20 0 -5
BITMAP
00
00
00
00
7E
7E
60
60
7C
7C
60
60
60
60
60
00
00
00
00
00
ENDCHAR

STARTCHAR G
ENCODING 71
SWIDTH 360 0
DWIDTH 7 0
BBX 7 20 0 -5
BITMAP
00
00
00
00
3A
7E
66
66
60
6E
6E
66
66
7E
3C
00
00
00
00
00
ENDCHAR

STARTCHAR H
ENCODING 72
SWIDTH 360 0
DWIDTH 7 0
BBX 7 20 0 -5
BITMAP
00
00
00
00
66
66
66
66
7E
7E
66
66
66
66
66
00
00
00
00
00
ENDCHAR

STARTCHAR I
ENCODING 73
SWIDTH 360 0
DWIDTH 7 0
BBX 7 20 0 -5
BITMAP
00
00
00
00
7E
7E
18
18
18
18
18
18
18
7E
7E
00
00
00
00
00
ENDCHAR

STARTCHAR J
ENCODING 74
SWIDTH 360 0
DWIDTH 7 0
BBX 7 20 0 -5
BITMAP
00
00
00
00
3E
3E
0C
0C
0C
0C
0C
6C
6C
7C
38
00
00
00
00
00
ENDCHAR

STARTCHAR K
ENCODING 75
SWIDTH 360 0
DWIDTH 7 0
BBX 7 20 0 -5
BITMAP
00
00
00
00
66
66
6C
6C
78
78
6C
6C
6C
66
66
00
00
00
00
00
ENDCHAR

STARTCHAR L
ENCODING 76
SWIDTH 360 0
DWIDTH 7 0
BBX 7 20 0 -5
BITMAP
00
00
00
00
78
78
30
30
30
30
30
30
32
7E
7E
00
00
00
00
00
ENDCHAR

STARTCHAR M
ENCODING 77
SWIDTH 360 0
DWIDTH 7 0
BBX 7 20 0 -5
BITMAP
00
00
00
00
42
66
66
7E
7E
7E
66
66
66
66
66
00
00
00
00
00
ENDCHAR

STARTCHAR N
ENCODING 78
SWIDTH 360 0
DWIDTH 7 0
BBX 7 20 0 -5
BITMAP
00
00
00
00
66
66
66
76
76
7E
6E
6E
66
66
66
00
00
00
00
00
ENDCHAR

STARTCHAR O
ENCODING 79
SWIDTH 360 0
DWIDTH 7 0
BBX 7 20 0 -5
BITMAP
00
00
00
00
3C
7E
66
66
66
66
66
66
66
7E
3C
00
00
00
00
00
ENDCHAR

STARTCHAR P
ENCODING 80
SWIDTH 360 0
DWIDTH 7 0
BBX 7 20 0 -5
BITMAP
00
00
00
00
7C
7E
66
66
66
7E
7C
60
60
60
60
00
00
00
00
00
ENDCHAR

STARTCHAR Q
ENCODING 81
SWIDTH 360 0
DWIDTH 7 0
BBX 7 20 0 -5
BITMAP
00
00
00
00
3C
7E
66
66
66
66
66
66
66
7E
3C
10
3E
3E
00
00
ENDCHAR

STARTCHAR R
ENCODING 82
SWIDTH 360 0
DWIDTH 7 0
BBX 7 20 0 -5
BITMAP
00
00
00
00
7C
7E
66
66
66
7C
7C
6C
6E
66
66
00
00
00
00
00
ENDCHAR

STARTCHAR S
ENCODING 83
SWIDTH 360 0
DWIDTH 7 0
BBX 7 20 0 -5
BITMAP
00
00
00
00
3E
7E
66
60
70
3C
0E
06
66
7E
7C
00
00
00
00
00
ENDCHAR

STARTCHAR T
ENCODING 84
SWIDTH 360 0
DWIDTH 7 0
BBX 7 20 0 -5
BITMAP
00
00
00
00
7E
7E
18
18
18
18
18
18
18
18
18
00
00
00
00
00
ENDCHAR

STARTCHAR U
ENCODING 85
SWIDTH 360 0
DWIDTH 7 0
BBX 7 20 0 -5
BITMAP
00
00
00
00
66
66
66
66
66
66
66
66
66
7E
3C
00
00
00
00
00
ENDCHAR

STARTCHAR V
ENCODING 86
SWIDTH 360 0
DWIDTH 7 0
BBX 7 20 0 -5
BITMAP
00
00
00
00
66
66
66
66
66
66
66
3C
3C
18
18
00
00
00
00
00
ENDCHAR

STARTCHAR W
ENCODING 87
SWIDTH 360 0
DWIDTH 7 0
BBX 7 20 0 -5
BITMAP
00
00
00
00
66
66
66
66
66
66
7E
7E
7E
66
42
00
00
00
00
00
ENDCHAR

STARTCHAR X
ENCODING 88
SWIDTH 360 0
DWIDTH 7 0
BBX 7 20 0 -5
BITMAP
00
00
00
00
66
66
66
66
3C
18
3C
3C
66
66
66
00
00
00
00
00
ENDCHAR

STARTCHAR Y
ENCODING 89
SWIDTH 360 0
DWIDTH 7 0
BBX 7 20 0 -5
BITMAP
00
00
00
00
66
66
66
66
3C
3C
18
18
18
18
18
00
00
00
00
00
ENDCHAR

STARTCHAR Z
ENCODING 90
SWIDTH 360 0
DWIDTH 7 0
BBX 7 20 0 -5
BITMAP
00
00
00
00
7E
7E
46
0E
0C
1C
18
38
32
7E
7E
00
00
00
00
00
ENDCHAR

STARTCHAR bracketleft
ENCODING 91
SWIDTH 360 0
DWIDTH 7 0
BBX 7 20 0 -5
BITMAP
00
00
00
38
38
30
30
30
30
30
30
30
30
30
30
38
38
00
00
00
ENDCHAR

STARTCHAR backslash
ENCODING 92
SWIDTH 360 0
DWIDTH 7 0
BBX 7 20 0 -5
BITMAP
00
00
00
60
60
60
30
30
30
18
18
18
18
0C
0C
0C
00
00
00
00
ENDCHAR

STARTCHAR bracketright
ENCODING 93
SWIDTH 360 0
DWIDTH 7 0
BBX 7 20 0 -5
BITMAP
00
00
00
38
38
18
18
18
18
18
18
18
18
18
18
38
38
00
00
00
ENDCHAR

STARTCHAR asciicircum
ENCODING 94
SWIDTH 360 0
DWIDTH 7 0
BBX 7 20 0 -5
BITMAP
00
00
00
00
00
00
18
3C
66
42
00
00
00
00
00
00
00
00
00
00
ENDCHAR

STARTCHAR ldblank
ENCODING 95
SWIDTH 360 0
DWIDTH 7 0
BBX 7 20 0 -5
BITMAP
00
00
00
00
00
00
00
00
00
00
00
00
00
00
00
00
00
00
00
00
ENDCHAR

STARTCHAR diamond
ENCODING 96
SWIDTH 360 0
DWIDTH 7 0
BBX 7 20 0 -5
BITMAP
00
00
00
00
00
18
18
3C
3C
7E
7E
3C
3C
18
18
00
00
00
00
00
ENDCHAR

STARTCHAR checkerboard
ENCODING 97
SWIDTH 360 0
DWIDTH 7 0
BBX 7 20 0 -5
BITMAP
C8
36
C8
36
C8
36
C8
36
C8
36
C8
36
C8
36
C8
36
C8
36
C8
36
ENDCHAR

STARTCHAR HT
ENCODING 98
SWIDTH 360 0
DWIDTH 7 0
BBX 7 20 0 -5
BITMAP
00
00
00
6C
6C
7C
7C
6C
6C
00
1E
0C
0C
0C
0C
0C
00
00
00
00
ENDCHAR

STARTCHAR FF
ENCODING 99
SWIDTH 360 0
DWIDTH 7 0
BBX 7 20 0 -5
BITMAP
00
00
00
78
60
70
60
60
60
00
1E
18
1C
18
18
18
00
00
00
00
ENDCHAR

STARTCHAR CR
ENCODING 100
SWIDTH 360 0
DWIDTH 7 0
BBX 7 20 0 -5
BITMAP
00
00
00
30
68
60
60
68
30
00
3C
36
3C
34
36
36
00
00
00
00
ENDCHAR

STARTCHAR LF
ENCODING 101
SWIDTH 360 0
DWIDTH 7 0
BBX 7 20 0 -5
BITMAP
00
00
00
60
60
60
60
60
78
00
1E
18
1C
18
18
18
00
00
00
00
ENDCHAR

STARTCHAR degree
ENCODING 102
SWIDTH 360 0
DWIDTH 7 0
BBX 7 20 0 -5
BITMAP
00
00
00
38
7C
6C
7C
38
00
00
00
00
00
00
00
00
00
00
00
00
ENDCHAR

STARTCHAR plusminus
ENCODING 103
SWIDTH 360 0
DWIDTH 7 0
BBX 7 20 0 -5
BITMAP
00
00
00
00
18
18
18
7E
7E
18
18
18
00
7E
7E
00
00
00
00
00
ENDCHAR

STARTCHAR NL
ENCODING 104
SWIDTH 360 0
DWIDTH 7 0
BBX 7 20 0 -5
BITMAP
00
00
00
4C
6C
7C
7C
6C
64
00
18
18
18
18
18
1E
00
00
00
00
ENDCHAR

STARTCHAR VT
ENCODING 105
SWIDTH 360 0
DWIDTH 7 0
BBX 7 20 0 -5
BITMAP
00
00
00
6C
6C
6C
6C
38
10
00
1E
0C
0C
0C
0C
0C
00
00
00
00
ENDCHAR

STARTCHAR ldcornsqlr
ENCODING 106
SWIDTH 360 0
DWIDTH 7 0
BBX 7 20 0 -5
BITMAP
18
18
18
18
18
18
18
18
18
F8
F8
00
00
00
00
00
00
00
00
00
ENDCHAR

STARTCHAR ldcornsqur
ENCODING 107
SWIDTH 360 0
DWIDTH 7 0
BBX 7 20 0 -5
BITMAP
00
00
00
00
00
00
00
00
00
F8
F8
18
18
18
18
18
18
18
18
18
ENDCHAR

STARTCHAR ldcornsqul
ENCODING 108
SWIDTH 360 0
DWIDTH 7 0
BBX 7 20 0 -5
BITMAP
00
00
00
00
00
00
00
00
00
1E
1E
18
18
18
18
18
18
18
18
18
ENDCHAR

STARTCHAR ldcornsqll
ENCODING 109
SWIDTH 360 0
DWIDTH 7 0
BBX 7 20 0 -5
BITMAP
18
18
18
18
18
18
18
18
18
1E
1E
00
00
00
00
00
00
00
00
00
ENDCHAR

STARTCHAR ldcross
ENCODING 110
SWIDTH 360 0
DWIDTH 7 0
BBX 7 20 0 -5
BITMAP
18
18
18
18
18
18
18
18
18
FE
FE
18
18
18
18
18
18
18
18
18
ENDCHAR

STARTCHAR ldscan1
ENCODING 111
SWIDTH 360 0
DWIDTH 7 0
BBX 7 20 0 -5
BITMAP
00
00
FE
FE
00
00
00
00
00
00
00
00
00
00
00
00
00
00
00
00
ENDCHAR

STARTCHAR ldscan3
ENCODING 112
SWIDTH 360 0
DWIDTH 7 0
BBX 7 20 0 -5
BITMAP
00
00
00
00
00
00
FE
FE
00
00
00
00
00
00
00
00
00
00
00
00
ENDCHAR

STARTCHAR ldhorizontal
ENCODING 113
SWIDTH 360 0
DWIDTH 7 0
BBX 7 20 0 -5
BITMAP
00
00
00
00
00
00
00
00
00
FE
FE
00
00
00
00
00
00
00
00
00
ENDCHAR

STARTCHAR ldscan7
ENCODING 114
SWIDTH 360 0
DWIDTH 7 0
BBX 7 20 0 -5
BITMAP
00
00
00
00
00
00
00
00
00
00
00
00
00
FE
FE
00
00
00
00
00
ENDCHAR

STARTCHAR ldscan9
ENCODING 115
SWIDTH 360 0
DWIDTH 7 0
BBX 7 20 0 -5
BITMAP
00
00
00
00
00
00
00
00
00
00
00
00
00
00
00
00
00
FE
FE
00
ENDCHAR

STARTCHAR ldteelft
ENCODING 116
SWIDTH 360 0
DWIDTH 7 0
BBX 7 20 0 -5
BITMAP
18
18
18
18
18
18
18
18
18
1E
1E
18
18
18
18
18
18
18
18
18
ENDCHAR

STARTCHAR ldteert
ENCODING 117
SWIDTH 360 0
DWIDTH 7 0
BBX 7 20 0 -5
BITMAP
18
18
18
18
18
18
18
18
18
F8
F8
18
18
18
18
18
18
18
18
18
ENDCHAR

STARTCHAR ldteebt
ENCODING 118
SWIDTH 360 0
DWIDTH 7 0
BBX 7 20 0 -5
BITMAP
18
18
18
18
18
18
18
18
18
FE
FE
00
00
00
00
00
00
00
00
00
ENDCHAR

STARTCHAR ldteetp
ENCODING 119
SWIDTH 360 0
DWIDTH 7 0
BBX 7 20 0 -5
BITMAP
00
00
00
00
00
00
00
00
00
FE
FE
18
18
18
18
18
18
18
18
18
ENDCHAR

STARTCHAR ldvertical
ENCODING 120
SWIDTH 360 0
DWIDTH 7 0
BBX 7 20 0 -5
BITMAP
18
18
18
18
18
18
18
18
18
18
18
18
18
18
18
18
18
18
18
18
ENDCHAR

STARTCHAR lessequal
ENCODING 121
SWIDTH 360 0
DWIDTH 7 0
BBX 7 20 0 -5
BITMAP
00
00
00
00
00
06
1E
78
60
78
1E
06
00
7E
7E
00
00
00
00
00
ENDCHAR

STARTCHAR greaterequal
ENCODING 122
SWIDTH 360 0
DWIDTH 7 0
BBX 7 20 0 -5
BITMAP
00
00
00
00
00
60
78
1E
06
1E
78
60
00
7E
7E
00
00
00
00
00
ENDCHAR

STARTCHAR pi
ENCODING 123
SWIDTH 360 0
DWIDTH 7 0
BBX 7 20 0 -5
BITMAP
00
00
00
00
00
00
7E
7E
36
36
36
6C
6C
6C
6C
00
00
00
00
00
ENDCHAR

STARTCHAR notequal
ENCODING 124
SWIDTH 360 0
DWIDTH 7 0
BBX 7 20 0 -5
BITMAP
00
00
00
00
00
04
04
7E
7E
18
18
7E
7E
20
20
00
00
00
00
00
ENDCHAR

STARTCHAR sterling
ENCODING 125
SWIDTH 360 0
DWIDTH 7 0
BBX 7 20 0 -5
BITMAP
00
00
00
00
1C
3E
36
30
7C
7C
30
30
30
7E
6E
00
00
00
00
00
ENDCHAR

STARTCHAR periodcentered
ENCODING 126
SWIDTH 360 0
DWIDTH 7 0
BBX 7 20 0 -5
BITMAP
00
00
00
00
00
00
00
00
00
18
3C
18
00
00
00
00
00
00
00
00
ENDCHAR

STARTCHAR Error
ENCODING 159
SWIDTH 360 0
DWIDTH 7 0
BBX 7 20 0 -5
BITMAP
00
7C
FE
EE
EE
EE
E0
F0
70
78
38
38
00
00
38
7C
7C
38
00
00
ENDCHAR

STARTCHAR space
ENCODING 160
SWIDTH 360 0
DWIDTH 7 0
BBX 7 20 0 -5
BITMAP
00
00
00
00
00
00
00
00
00
00
00
00
00
00
00
00
00
00
00
00
ENDCHAR

STARTCHAR ldradicalbt
ENCODING 161
SWIDTH 360 0
DWIDTH 7 0
BBX 7 20 0 -5
BITMAP
18
18
18
18
18
18
18
D8
D8
78
38
18
00
00
00
00
00
00
00
00
ENDCHAR

STARTCHAR ldradicaltp
ENCODING 162
SWIDTH 360 0
DWIDTH 7 0
BBX 7 20 0 -5
BITMAP
00
00
00
00
00
00
00
00
00
1E
1E
18
18
18
18
18
18
18
18
18
ENDCHAR

STARTCHAR ldhorizontal
ENCODING 163
SWIDTH 360 0
DWIDTH 7 0
BBX 7 20 0 -5
BITMAP
00
00
00
00
00
00
00
00
00
FE
FE
00
00
00
00
00
00
00
00
00
ENDCHAR

STARTCHAR ldintegraltp
ENCODING 164
SWIDTH 360 0
DWIDTH 7 0
BBX 7 20 0 -5
BITMAP
00
00
06
0E
18
18
18
18
18
18
18
18
18
18
18
18
18
18
18
18
ENDCHAR

STARTCHAR ldintegralbt
ENCODING 165
SWIDTH 360 0
DWIDTH 7 0
BBX 7 20 0 -5
BITMAP
18
18
18
18
18
18
18
18
18
18
18
18
18
18
18
18
70
60
00
00
ENDCHAR

STARTCHAR ldvertical
ENCODING 166
SWIDTH 360 0
DWIDTH 7 0
BBX 7 20 0 -5
BITMAP
18
18
18
18
18
18
18
18
18
18
18
18
18
18
18
18
18
18
18
18
ENDCHAR

STARTCHAR ldbracketlfttp
ENCODING 167
SWIDTH 360 0
DWIDTH 7 0
BBX 7 20 0 -5
BITMAP
00
00
1E
1E
18
18
18
18
18
18
18
18
18
18
18
18
18
18
18
18
ENDCHAR

STARTCHAR ldbracketlftbt
ENCODING 168
SWIDTH 360 0
DWIDTH 7 0
BBX 7 20 0 -5
BITMAP
18
18
18
18
18
18
18
18
18
18
18
18
18
18
18
18
1E
1E
00
00
ENDCHAR

STARTCHAR ldbracketrttp
ENCODING 169
SWIDTH 360 0
DWIDTH 7 0
BBX 7 20 0 -5
BITMAP
00
00
00
78
78
18
18
18
18
18
18
18
18
18
18
18
18
18
18
18
ENDCHAR

STARTCHAR ldbracketrtbt
ENCODING 170
SWIDTH 360 0
DWIDTH 7 0
BBX 7 20 0 -5
BITMAP
18
18
18
18
18
18
18
18
18
18
18
18
18
18
18
18
78
78
00
00
ENDCHAR

STARTCHAR ldbracelfttp
ENCODING 171
SWIDTH 360 0
DWIDTH 7 0
BBX 7 20 0 -5
BITMAP
00
00
06
0E
18
18
18
18
18
18
18
18
18
18
18
18
18
18
18
18
ENDCHAR

STARTCHAR ldbracelftbt
ENCODING 172
SWIDTH 360 0
DWIDTH 7 0
BBX 7 20 0 -5
BITMAP
18
18
18
18
18
18
18
18
18
18
18
18
18
18
18
18
18
0E
06
00
ENDCHAR

STARTCHAR ldbracerttp
ENCODING 173
SWIDTH 360 0
DWIDTH 7 0
BBX 7 20 0 -5
BITMAP
00
00
60
70
18
18
18
18
18
18
18
18
18
18
18
18
18
18
18
18
ENDCHAR

STARTCHAR ldbracertbt
ENCODING 174
SWIDTH 360 0
DWIDTH 7 0
BBX 7 20 0 -5
BITMAP
18
18
18
18
18
18
18
18
18
18
18
18
18
18
18
18
70
60
00
00
ENDCHAR

STARTCHAR ldbracelftmid
ENCODING 175
SWIDTH 360 0
DWIDTH 7 0
BBX 7 20 0 -5
BITMAP
18
18
18
18
18
18
18
18
18
30
70
30
18
18
18
18
18
18
18
18
ENDCHAR

STARTCHAR ldbracertmid
ENCODING 176
SWIDTH 360 0
DWIDTH 7 0
BBX 7 20 0 -5
BITMAP
18
18
18
18
18
18
18
18
18
0C
0E
0C
18
18
18
18
18
18
18
18
ENDCHAR

STARTCHAR ldsigmalfttp
ENCODING 177
SWIDTH 360 0
DWIDTH 7 0
BBX 7 20 0 -5
BITMAP
00
00
00
00
00
00
00
00
00
3E
3E
30
10
18
08
08
0C
04
06
06
ENDCHAR

STARTCHAR ldsigmalftbt
ENCODING 178
SWIDTH 360 0
DWIDTH 7 0
BBX 7 20 0 -5
BITMAP
02
06
04
0C
08
08
18
10
30
3E
3E
00
00
00
00
00
00
00
00
00
ENDCHAR

STARTCHAR ldbackslash
ENCODING 179
SWIDTH 360 0
DWIDTH 7 0
BBX 7 20 0 -5
BITMAP
80
80
C0
C0
40
60
60
20
30
30
10
18
18
08
0C
0C
04
06
06
02
ENDCHAR

STARTCHAR ldslash
ENCODING 180
SWIDTH 360 0
DWIDTH 7 0
BBX 7 20 0 -5
BITMAP
02
02
06
06
04
0C
0C
08
18
18
10
30
30
20
60
60
40
C0
C0
80
ENDCHAR

STARTCHAR ldsigmarttp
ENCODING 181
SWIDTH 360 0
DWIDTH 7 0
BBX 7 20 0 -5
BITMAP
00
00
00
00
00
00
00
00
00
FE
FE
06
06
00
00
00
00
00
00
00
ENDCHAR

STARTCHAR ldsigmartbt
ENCODING 182
SWIDTH 360 0
DWIDTH 7 0
BBX 7 20 0 -5
BITMAP
00
00
00
00
00
00
00
06
06
FE
FE
00
00
00
00
00
00
00
00
00
ENDCHAR

STARTCHAR ldsigmamid
ENCODING 183
SWIDTH 360 0
DWIDTH 7 0
BBX 7 20 0 -5
BITMAP
80
80
C0
C0
40
60
60
20
30
30
18
30
30
20
60
60
40
C0
C0
80
ENDCHAR

STARTCHAR lessequal
ENCODING 188
SWIDTH 360 0
DWIDTH 7 0
BBX 7 20 0 -5
BITMAP
00
00
00
00
00
06
1E
78
60
78
1E
06
00
7E
7E
00
00
00
00
00
ENDCHAR

STARTCHAR notequal
ENCODING 189
SWIDTH 360 0
DWIDTH 7 0
BBX 7 20 0 -5
BITMAP
00
00
00
00
00
04
04
7E
7E
18
18
7E
7E
20
20
00
00
00
00
00
ENDCHAR

STARTCHAR greaterequal
ENCODING 190
SWIDTH 360 0
DWIDTH 7 0
BBX 7 20 0 -5
BITMAP
00
00
00
00
00
60
78
1E
06
1E
78
60
00
7E
7E
00
00
00
00
00
ENDCHAR

STARTCHAR integral
ENCODING 191
SWIDTH 360 0
DWIDTH 7 0
BBX 7 20 0 -5
BITMAP
00
04
0E
1A
18
18
18
18
18
18
18
18
18
18
18
18
58
70
20
00
ENDCHAR

STARTCHAR therefore
ENCODING 192
SWIDTH 360 0
DWIDTH 7 0
BBX 7 20 0 -5
BITMAP
00
00
00
00
00
00
10
38
38
10
00
44
EE
EE
44
00
00
00
00
00
ENDCHAR

STARTCHAR proportional
ENCODING 193
SWIDTH 360 0
DWIDTH 7 0
BBX 7 20 0 -5
BITMAP
00
00
00
00
00
00
36
7E
7C
48
48
7C
7E
36
00
00
00
00
00
00
ENDCHAR

STARTCHAR infinity
ENCODING 194
SWIDTH 360 0
DWIDTH 7 0
BBX 7 20 0 -5
BITMAP
00
00
00
00
00
00
6C
EE
FE
92
92
FE
EE
6C
00
00
00
00
00
00
ENDCHAR

STARTCHAR divide
ENCODING 195
SWIDTH 360 0
DWIDTH 7 0
BBX 7 20 0 -5
BITMAP
00
00
00
00
00
18
18
18
00
7E
7E
00
18
18
18
00
00
00
00
00
ENDCHAR

STARTCHAR Delta
ENCODING 196
SWIDTH 360 0
DWIDTH 7 0
BBX 7 20 0 -5
BITMAP
00
00
00
00
18
3C
3C
66
66
66
66
66
66
7E
7E
00
00
00
00
00
ENDCHAR

STARTCHAR gradient
ENCODING 197
SWIDTH 360 0
DWIDTH 7 0
BBX 7 20 0 -5
BITMAP
00
00
00
00
7E
7E
66
66
66
66
66
66
3C
3C
18
00
00
00
00
00
ENDCHAR

STARTCHAR Phi
ENCODING 198
SWIDTH 360 0
DWIDTH 7 0
BBX 7 20 0 -5
BITMAP
00
00
00
00
3C
18
3C
7E
5A
5A
5A
7E
3C
18
3C
00
00
00
00
00
ENDCHAR

STARTCHAR Gamma
ENCODING 199
SWIDTH 360 0
DWIDTH 7 0
BBX 7 20 0 -5
BITMAP
00
00
00
00
7E
7E
36
36
30
30
30
30
30
78
78
00
00
00
00
00
ENDCHAR

STARTCHAR similar
ENCODING 200
SWIDTH 360 0
DWIDTH 7 0
BBX 7 20 0 -5
BITMAP
00
00
00
00
00
00
00
00
32
7E
4C
00
00
00
00
00
00
00
00
00
ENDCHAR

STARTCHAR approxequal
ENCODING 201
SWIDTH 360 0
DWIDTH 7 0
BBX 7 20 0 -5
BITMAP
00
00
00
00
00
00
00
32
7E
4C
00
7E
7E
00
00
00
00
00
00
00
ENDCHAR

STARTCHAR Theta
ENCODING 202
SWIDTH 360 0
DWIDTH 7 0
BBX 7 20 0 -5
BITMAP
00
00
00
00
3C
7E
66
66
7E
7E
66
66
66
7E
3C
00
00
00
00
00
ENDCHAR

STARTCHAR multiply
ENCODING 203
SWIDTH 360 0
DWIDTH 7 0
BBX 7 20 0 -5
BITMAP
00
00
00
00
00
00
66
66
3C
18
3C
66
66
00
00
00
00
00
00
00
ENDCHAR

STARTCHAR Lambda
ENCODING 204
SWIDTH 360 0
DWIDTH 7 0
BBX 7 20 0 -5
BITMAP
00
00
00
00
18
3C
3C
66
66
66
66
66
66
66
66
00
00
00
00
00
ENDCHAR

STARTCHAR arrowdblboth
ENCODING 205
SWIDTH 360 0
DWIDTH 7 0
BBX 7 20 0 -5
BITMAP
00
00
00
00
00
28
44
7C
FE
C6
FE
7C
44
28
00
00
00
00
00
00
ENDCHAR

STARTCHAR arrowdblright
ENCODING 206
SWIDTH 360 0
DWIDTH 7 0
BBX 7 20 0 -5
BITMAP
00
00
00
00
00
10
08
FC
FE
06
FE
FC
08
10
00
00
00
00
00
00
ENDCHAR

STARTCHAR equivalence
ENCODING 207
SWIDTH 360 0
DWIDTH 7 0
BBX 7 20 0 -5
BITMAP
00
00
00
00
00
00
7E
7E
00
7E
7E
00
7E
7E
00
00
00
00
00
00
ENDCHAR

STARTCHAR Pi
ENCODING 208
SWIDTH 360 0
DWIDTH 7 0
BBX 7 20 0 -5
BITMAP
00
00
00
00
7E
7E
66
66
66
66
66
66
66
66
66
00
00
00
00
00
ENDCHAR

STARTCHAR Psi
ENCODING 209
SWIDTH 360 0
DWIDTH 7 0
BBX 7 20 0 -5
BITMAP
00
00
00
00
3C
18
5A
5A
5A
5A
5A
3C
18
18
3C
00
00
00
00
00
ENDCHAR

STARTCHAR Sigma
ENCODING 211
SWIDTH 360 0
DWIDTH 7 0
BBX 7 20 0 -5
BITMAP
00
00
00
00
7E
7E
32
30
18
1C
18
30
32
7E
7E
00
00
00
00
00
ENDCHAR

STARTCHAR radical
ENCODING 214
SWIDTH 360 0
DWIDTH 7 0
BBX 7 20 0 -5
BITMAP
00
0E
0E
0C
0C
0C
0C
6C
6C
6C
6C
6C
6C
38
38
18
18
00
00
00
ENDCHAR

STARTCHAR Omega
ENCODING 215
SWIDTH 360 0
DWIDTH 7 0
BBX 7 20 0 -5
BITMAP
00
00
00
00
3C
7E
66
66
66
66
66
24
24
66
66
00
00
00
00
00
ENDCHAR

STARTCHAR Xi
ENCODING 216
SWIDTH 360 0
DWIDTH 7 0
BBX 7 20 0 -5
BITMAP
00
00
00
00
7E
7E
66
00
24
3C
3C
00
66
7E
7E
00
00
00
00
00
ENDCHAR

STARTCHAR Upsilon1
ENCODING 217
SWIDTH 360 0
DWIDTH 7 0
BBX 7 20 0 -5
BITMAP
00
00
00
00
66
66
66
3C
3C
18
18
18
18
3C
3C
00
00
00
00
00
ENDCHAR

STARTCHAR propersubset
ENCODING 218
SWIDTH 360 0
DWIDTH 7 0
BBX 7 20 0 -5
BITMAP
00
00
00
00
00
1E
3E
60
60
60
60
60
60
3E
1E
00
00
00
00
00
ENDCHAR

STARTCHAR propersuperset
ENCODING 219
SWIDTH 360 0
DWIDTH 7 0
BBX 7 20 0 -5
BITMAP
00
00
00
00
00
78
7C
06
06
06
06
06
06
7C
78
00
00
00
00
00
ENDCHAR

STARTCHAR intersection
ENCODING 220
SWIDTH 360 0
DWIDTH 7 0
BBX 7 20 0 -5
BITMAP
00
00
00
00
00
3C
7E
66
66
66
66
66
66
66
66
00
00
00
00
00
ENDCHAR

STARTCHAR union
ENCODING 221
SWIDTH 360 0
DWIDTH 7 0
BBX 7 20 0 -5
BITMAP
00
00
00
00
00
66
66
66
66
66
66
66
66
7E
3C
00
00
00
00
00
ENDCHAR

STARTCHAR logicaland
ENCODING 222
SWIDTH 360 0
DWIDTH 7 0
BBX 7 20 0 -5
BITMAP
00
00
00
00
00
10
10
38
38
28
6C
6C
6C
C6
C6
00
00
00
00
00
ENDCHAR

STARTCHAR logicalor
ENCODING 223
SWIDTH 360 0
DWIDTH 7 0
BBX 7 20 0 -5
BITMAP
00
00
00
00
00
C6
C6
6C
6C
6C
28
38
38
10
10
00
00
00
00
00
ENDCHAR

STARTCHAR logicalnot
ENCODING 224
SWIDTH 360 0
DWIDTH 7 0
BBX 7 20 0 -5
BITMAP
00
00
00
00
00
00
00
00
7E
7E
06
06
06
00
00
00
00
00
00
00
ENDCHAR

STARTCHAR alpha
ENCODING 225
SWIDTH 360 0
DWIDTH 7 0
BBX 7 20 0 -5
BITMAP
00
00
00
00
00
00
3A
7E
6C
6C
6C
6C
6C
7E
36
00
00
00
00
00
ENDCHAR

STARTCHAR beta
ENCODING 226
SWIDTH 360 0
DWIDTH 7 0
BBX 7 20 0 -5
BITMAP
00
00
00
1C
3E
36
36
36
3C
66
66
66
66
7E
7C
60
60
60
60
00
ENDCHAR

STARTCHAR chi
ENCODING 227
SWIDTH 360 0
DWIDTH 7 0
BBX 7 20 0 -5
BITMAP
00
00
00
00
00
00
36
36
36
36
1C
1C
38
38
6C
6C
CC
CC
00
00
ENDCHAR

STARTCHAR delta
ENCODING 228
SWIDTH 360 0
DWIDTH 7 0
BBX 7 20 0 -5
BITMAP
00
00
00
1C
3C
30
30
18
3C
6E
66
66
66
7E
3C
00
00
00
00
00
ENDCHAR

STARTCHAR epsilon
ENCODING 229
SWIDTH 360 0
DWIDTH 7 0
BBX 7 20 0 -5
BITMAP
00
00
00
00
00
00
1E
3E
60
7C
7C
60
60
7C
3C
00
00
00
00
00
ENDCHAR

STARTCHAR phi
ENCODING 230
SWIDTH 360 0
DWIDTH 7 0
BBX 7 20 0 -5
BITMAP
00
00
00
08
08
08
3C
7E
D6
D6
D6
D6
D6
FC
78
20
20
20
20
00
ENDCHAR

STARTCHAR gamma
ENCODING 231
SWIDTH 360 0
DWIDTH 7 0
BBX 7 20 0 -5
BITMAP
00
00
00
00
00
00
66
66
66
36
36
34
3C
18
18
30
30
30
00
00
ENDCHAR

STARTCHAR eta
ENCODING 232
SWIDTH 360 0
DWIDTH 7 0
BBX 7 20 0 -5
BITMAP
00
00
00
00
00
00
6E
7E
36
36
66
66
6C
6C
6C
0C
0C
0C
00
00
ENDCHAR

STARTCHAR iota
ENCODING 233
SWIDTH 360 0
DWIDTH 7 0
BBX 7 20 0 -5
BITMAP
00
00
00
00
00
00
38
38
18
18
30
30
30
3C
3C
00
00
00
00
00
ENDCHAR

STARTCHAR theta
ENCODING 234
SWIDTH 360 0
DWIDTH 7 0
BBX 7 20 0 -5
BITMAP
00
00
00
1C
3E
36
66
66
7E
7E
66
66
6C
7C
38
00
00
00
00
00
ENDCHAR

STARTCHAR kappa
ENCODING 235
SWIDTH 360 0
DWIDTH 7 0
BBX 7 20 0 -5
BITMAP
00
00
00
00
00
00
36
36
34
3C
38
78
6C
6C
66
00
00
00
00
00
ENDCHAR

STARTCHAR lambda
ENCODING 236
SWIDTH 360 0
DWIDTH 7 0
BBX 7 20 0 -5
BITMAP
00
00
3C
3C
0C
0C
0C
1C
1C
36
36
36
66
66
66
00
00
00
00
00
ENDCHAR

STARTCHAR nu
ENCODING 238
SWIDTH 360 0
DWIDTH 7 0
BBX 7 20 0 -5
BITMAP
00
00
00
00
00
00
76
76
36
36
36
3C
3C
38
30
00
00
00
00
00
ENDCHAR

STARTCHAR partialdiff
ENCODING 239
SWIDTH 360 0
DWIDTH 7 0
BBX 7 20 0 -5
BITMAP
00
00
00
70
78
1C
0C
3E
7E
66
66
66
66
7E
3C
00
00
00
00
00
ENDCHAR

STARTCHAR pi
ENCODING 240
SWIDTH 360 0
DWIDTH 7 0
BBX 7 20 0 -5
BITMAP
00
00
00
00
00
00
7E
7E
36
36
36
6C
6C
6C
6C
00
00
00
00
00
ENDCHAR

STARTCHAR psi
ENCODING 241
SWIDTH 360 0
DWIDTH 7 0
BBX 7 20 0 -5
BITMAP
00
00
00
00
10
10
10
D6
D6
D6
D6
D6
D6
FE
7C
20
20
20
20
00
ENDCHAR

STARTCHAR rho
ENCODING 242
SWIDTH 360 0
DWIDTH 7 0
BBX 7 20 0 -5
BITMAP
00
00
00
00
00
00
1C
3E
66
66
66
66
66
7C
78
60
60
60
00
00
ENDCHAR

STARTCHAR sigma
ENCODING 243
SWIDTH 360 0
DWIDTH 7 0
BBX 7 20 0 -5
BITMAP
00
00
00
00
00
00
1E
3E
66
66
66
66
66
7C
38
00
00
00
00
00
ENDCHAR

STARTCHAR tau
ENCODING 244
SWIDTH 360 0
DWIDTH 7 0
BBX 7 20 0 -5
BITMAP
00
00
00
00
00
00
7C
7C
30
30
30
30
36
3E
1C
00
00
00
00
00
ENDCHAR

STARTCHAR florin
ENCODING 246
SWIDTH 360 0
DWIDTH 7 0
BBX 7 20 0 -5
BITMAP
00
00
00
00
0E
1E
18
18
3C
3C
18
18
18
30
30
30
F0
E0
00
00
ENDCHAR

STARTCHAR omega
ENCODING 247
SWIDTH 360 0
DWIDTH 7 0
BBX 7 20 0 -5
BITMAP
00
00
00
00
00
00
D6
D6
D6
D6
D6
D6
D6
FE
6C
00
00
00
00
00
ENDCHAR

STARTCHAR xi
ENCODING 248
SWIDTH 360 0
DWIDTH 7 0
BBX 7 20 0 -5
BITMAP
00
00
00
7E
7E
18
30
30
38
38
60
60
60
7C
3E
06
06
0E
0C
00
ENDCHAR

STARTCHAR upsilon
ENCODING 249
SWIDTH 360 0
DWIDTH 7 0
BBX 7 20 0 -5
BITMAP
00
00
00
00
00
00
66
66
66
66
66
66
6C
7C
38
00
00
00
00
00
ENDCHAR

STARTCHAR zeta
ENCODING 250
SWIDTH 360 0
DWIDTH 7 0
BBX 7 20 0 -5
BITMAP
00
00
00
7E
7E
0C
18
30
30
60
60
60
60
7C
3E
06
06
06
0C
00
ENDCHAR

STARTCHAR arrowleft
ENCODING 251
SWIDTH 360 0
DWIDTH 7 0
BBX 7 20 0 -5
BITMAP
00
00
00
00
00
00
10
30
60
FE
FE
60
30
10
00
00
00
00
00
00
ENDCHAR

STARTCHAR arrowup
ENCODING 252
SWIDTH 360 0
DWIDTH 7 0
BBX 7 20 0 -5
BITMAP
00
00
00
18
3C
3C
5A
5A
5A
18
18
18
18
18
18
18
18
00
00
00
ENDCHAR

STARTCHAR arrowright
ENCODING 253
SWIDTH 360 0
DWIDTH 7 0
BBX 7 20 0 -5
BITMAP
00
00
00
00
00
00
10
18
0C
FE
FE
0C
18
10
00
00
00
00
00
00
ENDCHAR

STARTCHAR arrowdown
ENCODING 254
SWIDTH 360 0
DWIDTH 7 0
BBX 7 20 0 -5
BITMAP
00
00
00
18
18
18
18
18
18
18
18
5A
5A
5A
3C
3C
18
00
00
00
ENDCHAR
ENDFONT
